# xmcd CD database file
#
# Track frame offsets:
#	150
#	29698
#	52737
#	67797
#	83272
#	106603
#	132003
#	158109
#	186403
#	218870
#	257596
#	281928
#
# Disc length: 3984 seconds
#
# Revision: 0
# Processed by: cddbd v1.5.2PL0 Copyright (c) Steve Scherf et al.
# Submitted via: CDex 1.51
#
DISCID=9a0f8e0c
DTITLE=Boulevard Blues - Live and Direct
DYEAR=2006
DGENRE=Blues
TTITLE0=Further On Up The Road
TTITLE1=Someday After Awhie
TTITLE2=Just Can't Take It
TTITLE3=Treat Her Right
TTITLE4=Dr John
TTITLE5=Something In My Eye
TTITLE6=Know It Ain't Right
TTITLE7=Hoochie Coochie Man
TTITLE8=Rolling Stone
TTITLE9=Funky Music
TTITLE10=Don't Think Twice
TTITLE11=Moving On
EXTD=YEAR: 2006
EXTT0=
EXTT1=
EXTT2=
EXTT3=
EXTT4=
EXTT5=
EXTT6=
EXTT7=
EXTT8=
EXTT9=
EXTT10=
EXTT11=
PLAYORDER=
